<svg id="Layer_1" data-name="Layer 1" xmlns="http://www.w3.org/2000/svg" viewBox="0 0 312.4 168.27"><defs><style>.cls-1{fill:#5bc3b9;}.cls-2{fill:#4170ae;}.cls-3{fill:#e0e2e5;}.cls-4{fill:#8c9aa5;}</style></defs><rect class="cls-1" x="152.81" y="16.59" width="6.67" height="21.33"/><circle class="cls-1" cx="156.14" cy="11.16" r="11.16"/><path class="cls-1" d="M294.5,410.06C281,409.7,269,407,260.66,402.87a25.87,25.87,0,0,1,33.84,7.19Z" transform="translate(-141.44 -336.81)"/><path class="cls-1" d="M321.58,399.41a25.67,25.67,0,0,1,12.92,3.46c-8.31,4.12-20.33,6.83-33.84,7.19A25.8,25.8,0,0,1,321.58,399.41Z" transform="translate(-141.44 -336.81)"/><path class="cls-1" d="M338.45,377.88H256.7c8.13-5.34,21.82-9,37.55-9.43,1.1,0,2.21-.05,3.33-.05s2.23,0,3.33.05C316.64,368.9,330.31,372.54,338.45,377.88Z" transform="translate(-141.44 -336.81)"/><path class="cls-1" d="M216.38,416.27v26.16a2.26,2.26,0,0,1-.36,1.24,2.32,2.32,0,0,1-2,1.09h-4.84a2.32,2.32,0,0,1-2.31-2.33V431H204a4.67,4.67,0,1,1,0-2.37h2.87V416.27a2.32,2.32,0,0,1,2.31-2.33h4.84a2.34,2.34,0,0,1,2.33,2.33Z" transform="translate(-141.44 -336.81)"/><path class="cls-2" d="M189.4,426v6.66H165.86a11.15,11.15,0,1,1,0-6.66Z" transform="translate(-141.44 -336.81)"/><path class="cls-2" d="M205.6,397.91v6l-28.82-.32H173.3l-13.08-22.08a14.38,14.38,0,0,1-3.68.46,15.11,15.11,0,1,1,9.09-3l10.94,18.94Z" transform="translate(-141.44 -336.81)"/><path class="cls-2" d="M206.31,452.92V459h-29L166.34,477.9a15.11,15.11,0,1,1-9.08-3,15.24,15.24,0,0,1,3.67.44L174,453.25h3.49Z" transform="translate(-141.44 -336.81)"/><path class="cls-1" d="M400.44,429.83a4.68,4.68,0,0,1-9.2,1.18h-2.85v11.42a2.33,2.33,0,0,1-2.33,2.33h-4.84a2.32,2.32,0,0,1-2.09-1.32,2.24,2.24,0,0,1-.23-1V416.27a2.27,2.27,0,0,1,.23-1,2.32,2.32,0,0,1,2.09-1.32h4.84a2.33,2.33,0,0,1,2.33,2.33v12.37h2.85a4.68,4.68,0,0,1,9.2,1.19Z" transform="translate(-141.44 -336.81)"/><path class="cls-2" d="M451.23,429.35a11.16,11.16,0,0,1-21.81,3.33H405.87V426h23.55a11.16,11.16,0,0,1,21.81,3.33Z" transform="translate(-141.44 -336.81)"/><path class="cls-2" d="M453.84,366.9A15.12,15.12,0,0,1,438.73,382a14.5,14.5,0,0,1-3.68-.46L422,403.63h-3.49l-28.82.32v-6h29L429.65,379a15.1,15.1,0,1,1,24.19-12.07Z" transform="translate(-141.44 -336.81)"/><path class="cls-2" d="M453.12,490a15.11,15.11,0,1,1-24.18-12.07L418,459H389v-6.05l28.81.33h3.5l13.07,22.06a15.36,15.36,0,0,1,3.67-.44A15.11,15.11,0,0,1,453.12,490Z" transform="translate(-141.44 -336.81)"/><path class="cls-2" d="M379.13,415.26v-16.8a20.58,20.58,0,0,0-20.57-20.58h-122A20.59,20.59,0,0,0,216,398.46V415a2.31,2.31,0,0,1,.36,1.24v26.16a2.26,2.26,0,0,1-.36,1.24v8.42a20.58,20.58,0,0,0,20.58,20.57h122a20.57,20.57,0,0,0,20.57-20.57v-8.65a2.24,2.24,0,0,1-.23-1V416.27A2.27,2.27,0,0,1,379.13,415.26Zm-57.55,35.88a25.87,25.87,0,0,1-24-16.2,25.87,25.87,0,1,1-3.08-24.88c1,0,2.05,0,3.08,0s2.06,0,3.08,0a25.86,25.86,0,1,1,20.92,41.08Z" transform="translate(-141.44 -336.81)"/><path class="cls-2" d="M216,415a2.31,2.31,0,0,1,.36,1.24v26.16a2.26,2.26,0,0,1-.36,1.24Z" transform="translate(-141.44 -336.81)"/><path class="cls-2" d="M347.44,425.27a25.87,25.87,0,0,1-49.86,9.67,25.87,25.87,0,1,1-3.08-24.88c1,0,2.05,0,3.08,0s2.06,0,3.08,0a25.86,25.86,0,0,1,46.78,15.21Z" transform="translate(-141.44 -336.81)"/><path class="cls-2" d="M379.13,415.26v28.18a2.24,2.24,0,0,1-.23-1V416.27A2.27,2.27,0,0,1,379.13,415.26Z" transform="translate(-141.44 -336.81)"/><path class="cls-3" d="M281.68,425.27a8.1,8.1,0,1,1-8.09-8.09A8.09,8.09,0,0,1,281.68,425.27Z" transform="translate(-141.44 -336.81)"/><path class="cls-3" d="M334.5,402.87a25.87,25.87,0,0,0-33.84,7.19,25.4,25.4,0,0,0-3.08,5.54,25.87,25.87,0,1,0,0,19.34,25.87,25.87,0,1,0,36.92-32.07Zm-60.92,30.5a8.1,8.1,0,1,1,8.1-8.1A8.1,8.1,0,0,1,273.58,433.37Zm48,0a8.1,8.1,0,1,1,8.08-8.1A8.09,8.09,0,0,1,321.58,433.37Z" transform="translate(-141.44 -336.81)"/><path class="cls-3" d="M329.67,425.27a8.1,8.1,0,1,1-8.1-8.09A8.1,8.1,0,0,1,329.67,425.27Z" transform="translate(-141.44 -336.81)"/><path class="cls-4" d="M281.68,425.27a8.1,8.1,0,1,1-8.09-8.09A8.09,8.09,0,0,1,281.68,425.27Z" transform="translate(-141.44 -336.81)"/><path class="cls-4" d="M329.67,425.27a8.1,8.1,0,1,1-8.1-8.09A8.1,8.1,0,0,1,329.67,425.27Z" transform="translate(-141.44 -336.81)"/></svg>