<svg id="Layer_1" data-name="Layer 1" xmlns="http://www.w3.org/2000/svg" viewBox="0 0 269.91 145.38"><defs><style>.cls-1{fill:#5bc3b9;}.cls-2{fill:#4170ae;}.cls-3{fill:#e0e2e5;}.cls-4{fill:#8c9aa5;}</style></defs><rect class="cls-1" x="132.02" y="14.33" width="5.76" height="18.43"/><circle class="cls-1" cx="134.9" cy="9.64" r="9.64"/><ellipse class="cls-1" cx="134.9" cy="45.31" rx="42.14" ry="18.01"/><path class="cls-1" d="M227.43,416.9v22.61a2,2,0,0,1-2,2h-4.18a2,2,0,0,1-2-2v-9.87h-2.48a4,4,0,1,1,0-2.05h2.48V416.9a2,2,0,0,1,2-2h4.18A2,2,0,0,1,227.43,416.9Z" transform="translate(-162.68 -348.25)"/><path class="cls-2" d="M204.13,425.33v5.76H183.78a9.64,9.64,0,1,1,0-5.76Z" transform="translate(-162.68 -348.25)"/><path class="cls-2" d="M218.12,401v5.23l-24.9-.28h-3l-11.3-19.07a12.77,12.77,0,0,1-3.18.4,13.06,13.06,0,1,1,7.86-2.63L193,401Z" transform="translate(-162.68 -348.25)"/><path class="cls-2" d="M218.74,448.57v5.23H193.65l-9.45,16.35a13.06,13.06,0,1,1-7.84-2.62,13.29,13.29,0,0,1,3.17.39l11.29-19.06h3Z" transform="translate(-162.68 -348.25)"/><path class="cls-1" d="M367.85,416.9v22.61a2,2,0,0,0,2,2H374a2,2,0,0,0,2-2v-9.87h2.48a4,4,0,1,0,0-2.05H376V416.9a2,2,0,0,0-2-2h-4.18A2,2,0,0,0,367.85,416.9Z" transform="translate(-162.68 -348.25)"/><path class="cls-2" d="M430.33,428.21a9.64,9.64,0,0,1-18.84,2.88H391.15v-5.76h20.34a9.64,9.64,0,0,1,18.84,2.88Z" transform="translate(-162.68 -348.25)"/><path class="cls-2" d="M432.59,374.25a13.06,13.06,0,0,1-13,13.06,12.89,12.89,0,0,1-3.18-.4L405.07,406h-3l-24.9.28V401h25.09l9.45-16.36a13.05,13.05,0,1,1,20.9-10.43Z" transform="translate(-162.68 -348.25)"/><path class="cls-2" d="M432,480.59a13.05,13.05,0,1,1-20.89-10.44l-9.45-16.35H376.54v-5.23l24.89.29h3l11.3,19.06a13.23,13.23,0,0,1,3.17-.39A13.06,13.06,0,0,1,432,480.59Z" transform="translate(-162.68 -348.25)"/><rect class="cls-2" x="64.44" y="35.49" width="140.92" height="81.89" rx="17.78"/><path class="cls-3" d="M283.85,424.68a7,7,0,1,1-7-7A7,7,0,0,1,283.85,424.68Z" transform="translate(-162.68 -348.25)"/><path class="cls-3" d="M318.32,402.34a22.33,22.33,0,0,0-20.73,14,22.35,22.35,0,1,0,0,16.71,22.35,22.35,0,1,0,20.73-30.7Zm-41.46,29.34a7,7,0,1,1,7-7A7,7,0,0,1,276.86,431.68Zm41.46,0a7,7,0,1,1,7-7A7,7,0,0,1,318.32,431.68Z" transform="translate(-162.68 -348.25)"/><path class="cls-3" d="M325.31,424.68a7,7,0,1,1-7-7A7,7,0,0,1,325.31,424.68Z" transform="translate(-162.68 -348.25)"/><path class="cls-4" d="M283.85,424.68a7,7,0,1,1-7-7A7,7,0,0,1,283.85,424.68Z" transform="translate(-162.68 -348.25)"/><path class="cls-4" d="M325.31,424.68a7,7,0,1,1-7-7A7,7,0,0,1,325.31,424.68Z" transform="translate(-162.68 -348.25)"/><path class="cls-2" d="M211.38,475.42V488h-2.91V475.42h-3.92v-2.48h10.74v2.48Z" transform="translate(-162.68 -348.25)"/><path class="cls-2" d="M228.3,486.15a7,7,0,0,1-5.22,2.14,6.45,6.45,0,0,1-5.16-2.06,9.36,9.36,0,0,1,.47-11.4,6.94,6.94,0,0,1,5.21-2.14,6.46,6.46,0,0,1,5.16,2,9.41,9.41,0,0,1-.46,11.42Zm-1.93-9.4a3.49,3.49,0,0,0-3-1.44,3.59,3.59,0,0,0-2.87,1.31,5.66,5.66,0,0,0-1.15,3.75,6.45,6.45,0,0,0,1,3.84,3.48,3.48,0,0,0,3,1.43,3.58,3.58,0,0,0,2.87-1.3,5.64,5.64,0,0,0,1.16-3.75A6.45,6.45,0,0,0,226.37,476.75Z" transform="translate(-162.68 -348.25)"/><path class="cls-2" d="M244.32,486.15a7,7,0,0,1-5.21,2.14,6.44,6.44,0,0,1-5.16-2.06,9.38,9.38,0,0,1,.46-11.4,7,7,0,0,1,5.22-2.14,6.45,6.45,0,0,1,5.15,2,9.37,9.37,0,0,1-.46,11.42Zm-1.92-9.4a3.49,3.49,0,0,0-3-1.44,3.59,3.59,0,0,0-2.87,1.31,5.66,5.66,0,0,0-1.16,3.75,6.45,6.45,0,0,0,1,3.84,3.48,3.48,0,0,0,3,1.43,3.6,3.6,0,0,0,2.88-1.3,5.64,5.64,0,0,0,1.16-3.75A6.45,6.45,0,0,0,242.4,476.75Z" transform="translate(-162.68 -348.25)"/><path class="cls-2" d="M248.65,488v-15.1h2.91v12.55h4.9V488Z" transform="translate(-162.68 -348.25)"/><path class="cls-2" d="M265.51,486.89a6.29,6.29,0,0,1-4.23,1.4,13.54,13.54,0,0,1-3.49-.41l.31-2.79a8.5,8.5,0,0,0,3.29.64c1.69,0,2.54-.65,2.54-2a1.79,1.79,0,0,0-1-1.54c-.17-.1-.9-.42-2.18-1q-3.18-1.29-3.18-4a4,4,0,0,1,1.48-3.28,6.46,6.46,0,0,1,4.22-1.26A12.8,12.8,0,0,1,266,473l-.26,2.55a8.19,8.19,0,0,0-2.6-.43c-1.65,0-2.48.6-2.48,1.81a1.72,1.72,0,0,0,1,1.48c.15.09.89.41,2.23,1q3.23,1.38,3.23,4A4.38,4.38,0,0,1,265.51,486.89Z" transform="translate(-162.68 -348.25)"/><path class="cls-2" d="M276.77,475.42v3.86h4.89v2.4h-4.89V488h-2.9v-15.1h8.07v2.48Z" transform="translate(-162.68 -348.25)"/><path class="cls-2" d="M295.52,486.15a7,7,0,0,1-5.21,2.14,6.48,6.48,0,0,1-5.17-2.06,9.4,9.4,0,0,1,.47-11.4,7,7,0,0,1,5.22-2.14,6.45,6.45,0,0,1,5.15,2,9.37,9.37,0,0,1-.46,11.42Zm-1.92-9.4a3.5,3.5,0,0,0-3-1.44,3.58,3.58,0,0,0-2.86,1.31,5.66,5.66,0,0,0-1.16,3.75,6.45,6.45,0,0,0,1,3.84,3.46,3.46,0,0,0,3,1.43,3.6,3.6,0,0,0,2.88-1.3,5.64,5.64,0,0,0,1.15-3.75A6.45,6.45,0,0,0,293.6,476.75Z" transform="translate(-162.68 -348.25)"/><path class="cls-2" d="M307.08,488,303,481.8h-.25V488h-2.91v-15.1c1.06-.07,2.5-.1,4.34-.1q5.47,0,5.48,4.26a4,4,0,0,1-1.07,2.81,4.54,4.54,0,0,1-2.64,1.4c.57.74,1,1.29,1.21,1.65l3.51,5.08Zm-3.18-12.83a5.94,5.94,0,0,0-1.14.08v4.36c.27,0,.62,0,1.05,0a3.16,3.16,0,0,0,2.06-.62,2.08,2.08,0,0,0,.77-1.69C306.64,475.93,305.72,475.21,303.9,475.21Z" transform="translate(-162.68 -348.25)"/><path class="cls-2" d="M325.57,488l-4.68-8.33a25.21,25.21,0,0,1-1.34-2.95q.15,2.31.15,7.18V488h-2.79v-15.1h3.84l4.57,8.11a26.84,26.84,0,0,1,1.45,3c-.1-1.78-.15-4.22-.15-7.34v-3.8h2.8V488Z" transform="translate(-162.68 -348.25)"/><path class="cls-2" d="M343.66,486.15a7,7,0,0,1-5.21,2.14,6.48,6.48,0,0,1-5.17-2.06,9.4,9.4,0,0,1,.47-11.4,7,7,0,0,1,5.22-2.14,6.45,6.45,0,0,1,5.15,2,9.37,9.37,0,0,1-.46,11.42Zm-1.92-9.4a3.5,3.5,0,0,0-3-1.44,3.58,3.58,0,0,0-2.86,1.31,5.66,5.66,0,0,0-1.16,3.75,6.45,6.45,0,0,0,1,3.84,3.46,3.46,0,0,0,3,1.43,3.57,3.57,0,0,0,2.87-1.3,5.59,5.59,0,0,0,1.16-3.75A6.45,6.45,0,0,0,341.74,476.75Z" transform="translate(-162.68 -348.25)"/><path class="cls-2" d="M359.69,486.15a7,7,0,0,1-5.21,2.14,6.48,6.48,0,0,1-5.17-2.06,9.4,9.4,0,0,1,.47-11.4,7,7,0,0,1,5.21-2.14,6.46,6.46,0,0,1,5.16,2,9.37,9.37,0,0,1-.46,11.42Zm-1.92-9.4a3.5,3.5,0,0,0-3-1.44,3.57,3.57,0,0,0-2.86,1.31,5.66,5.66,0,0,0-1.16,3.75,6.53,6.53,0,0,0,1,3.84,3.49,3.49,0,0,0,3,1.43,3.57,3.57,0,0,0,2.87-1.3,5.59,5.59,0,0,0,1.16-3.75A6.53,6.53,0,0,0,357.77,476.75Z" transform="translate(-162.68 -348.25)"/><path class="cls-2" d="M373.13,486.6a6.74,6.74,0,0,1-4.71,1.48l-1.87,0c-1,0-1.83,0-2.53,0V473q2.13-.12,5-.12a6.26,6.26,0,0,1,3.75,1,3.25,3.25,0,0,1,1.31,2.77,3.37,3.37,0,0,1-2.28,3.39V480a3.26,3.26,0,0,1,1.95,1.18,3.34,3.34,0,0,1,.76,2.19A4.17,4.17,0,0,1,373.13,486.6Zm-4.57-11.43c-.46,0-1,0-1.64,0v4l1.19,0c1.93,0,2.89-.72,2.89-2.15C371,475.79,370.19,475.17,368.56,475.17Zm-.36,6.2-1.28,0v4.28c.73,0,1.26.06,1.62.06a3.23,3.23,0,0,0,2.14-.63,2,2,0,0,0,.72-1.63C371.4,482.07,370.34,481.37,368.2,481.37Z" transform="translate(-162.68 -348.25)"/><path class="cls-2" d="M384.25,486.89a6.29,6.29,0,0,1-4.23,1.4,13.59,13.59,0,0,1-3.49-.41l.31-2.79a8.53,8.53,0,0,0,3.29.64c1.69,0,2.54-.65,2.54-2a1.77,1.77,0,0,0-1-1.54c-.17-.1-.9-.42-2.18-1q-3.18-1.29-3.18-4A4,4,0,0,1,377.8,474a6.41,6.41,0,0,1,4.21-1.26,12.67,12.67,0,0,1,2.73.29l-.26,2.55a8.19,8.19,0,0,0-2.6-.43c-1.65,0-2.48.6-2.48,1.81a1.73,1.73,0,0,0,1,1.48c.14.09.88.41,2.23,1,2.14.92,3.22,2.26,3.22,4A4.38,4.38,0,0,1,384.25,486.89Z" transform="translate(-162.68 -348.25)"/></svg>